<?xml version="1.0" encoding="UTF-8" standalone="no"?>
<!-- Created with Inkscape (http://www.inkscape.org/) -->

<svg
   xmlns:dc="http://purl.org/dc/elements/1.1/"
   xmlns:cc="http://creativecommons.org/ns#"
   xmlns:rdf="http://www.w3.org/1999/02/22-rdf-syntax-ns#"
   xmlns:svg="http://www.w3.org/2000/svg"
   xmlns="http://www.w3.org/2000/svg"
   xmlns:sodipodi="http://sodipodi.sourceforge.net/DTD/sodipodi-0.dtd"
   xmlns:inkscape="http://www.inkscape.org/namespaces/inkscape"
   width="256"
   height="160"
   viewBox="0 0 256 160"
   id="svg2"
   version="1.1"
   inkscape:version="0.91 r13725"
   sodipodi:docname="stamp.svg"
   inkscape:export-filename="/home/kenanb/dev/tldrt/stamp_bg.png"
   inkscape:export-xdpi="180"
   inkscape:export-ydpi="180">
  <defs
     id="defs4" />
  <sodipodi:namedview
     id="base"
     pagecolor="#ffffff"
     bordercolor="#666666"
     borderopacity="1.0"
     inkscape:pageopacity="0.0"
     inkscape:pageshadow="2"
     inkscape:zoom="5.6"
     inkscape:cx="123.92912"
     inkscape:cy="92.890755"
     inkscape:document-units="px"
     inkscape:current-layer="layer1"
     showgrid="true"
     showguides="true"
     units="px"
     inkscape:snap-bbox="true"
     inkscape:bbox-paths="true"
     inkscape:bbox-nodes="true"
     inkscape:snap-bbox-edge-midpoints="true"
     inkscape:snap-bbox-midpoints="true"
     inkscape:object-paths="true"
     inkscape:object-nodes="true"
     inkscape:snap-intersection-paths="true"
     inkscape:snap-smooth-nodes="true"
     inkscape:snap-midpoints="true"
     inkscape:snap-object-midpoints="true"
     inkscape:snap-center="true"
     inkscape:snap-text-baseline="true"
     inkscape:snap-page="true"
     inkscape:window-width="1914"
     inkscape:window-height="1061"
     inkscape:window-x="0"
     inkscape:window-y="16"
     inkscape:window-maximized="0"
     inkscape:snap-grids="false">
    <inkscape:grid
       type="xygrid"
       id="grid4283"
       spacingx="7.9999998"
       spacingy="8"
       empspacing="4" />
  </sodipodi:namedview>
  <metadata
     id="metadata7">
    <rdf:RDF>
      <cc:Work
         rdf:about="">
        <dc:format>image/svg+xml</dc:format>
        <dc:type
           rdf:resource="http://purl.org/dc/dcmitype/StillImage" />
        <dc:title />
      </cc:Work>
    </rdf:RDF>
  </metadata>
  <g
     inkscape:label="Layer 1"
     inkscape:groupmode="layer"
     id="layer1"
     transform="translate(0,-892.36219)">
    <path
       inkscape:connector-curvature="0"
       id="path4889-4"
       d="m 79.955078,906.68836 c -3.01978,4.3881 -7.563618,6.95173 -13.705078,7.79883 l 0,9.875 9.5,0 0,52.875 c 0,7.625 0.5,10.625 2,13.625 2.75,5 7.625,7.375 15,7.375 l 49.75,0 0,-9.875 -42,0 c -3.375,0 -4.5,-2 -4.5,-8.5 l 0,-55.5 9.5,0 0,-9.875 c -6.14146,-0.8471 -10.687251,-3.41073 -13.707031,-7.79883 l -11.837891,0 z"
       style="font-style:normal;font-variant:normal;font-weight:600;font-stretch:normal;font-size:125px;line-height:125%;font-family:'URW Bookman';-inkscape-font-specification:'URW Bookman Semi-Bold';letter-spacing:0px;word-spacing:0px;fill:none;fill-opacity:1;stroke:#0d65cf;stroke-width:5;stroke-linecap:butt;stroke-linejoin:miter;stroke-miterlimit:4;stroke-dasharray:none;stroke-opacity:1" />
    <path
       inkscape:connector-curvature="0"
       id="path5086-6"
       d="m 113.5,914.48719 0,9.875 42,0 c 3.375,0 4.5,2 4.5,8.5 l 0,55.5 -9.5,0 0,9.875 c 6.14146,0.8471 10.68725,3.41071 13.70703,7.79881 l 11.83789,0 c 3.01978,-4.3881 7.56363,-6.95171 13.70508,-7.79881 l 0,-9.875 -9.5,0 0,-52.875 c 0,-7.625 -0.5,-10.625 -2,-13.625 -2.75,-5 -7.625,-7.375 -15,-7.375 l -49.75,0 z"
       style="font-style:normal;font-variant:normal;font-weight:600;font-stretch:normal;font-size:125px;line-height:125%;font-family:'URW Bookman';-inkscape-font-specification:'URW Bookman Semi-Bold';letter-spacing:0px;word-spacing:0px;fill:none;fill-opacity:1;stroke:#0d65cf;stroke-width:5;stroke-linecap:butt;stroke-linejoin:miter;stroke-miterlimit:4;stroke-dasharray:none;stroke-opacity:1" />
  </g>
</svg>
